<?xml version="1.0" encoding="UTF-8" standalone="no"?>
<!-- Created with Inkscape (http://www.inkscape.org/) -->

<svg
   width="51.320309mm"
   height="8.3506794mm"
   viewBox="0 0 51.320309 8.3506794"
   version="1.1"
   id="svg1"
   xmlns="http://www.w3.org/2000/svg"
   xmlns:svg="http://www.w3.org/2000/svg">
  <defs
     id="defs1" />
  <g
     id="layer1"
     transform="translate(-20.995528,-28.28878)">
    <rect
       width="1.3900282"
       height="5.8958158"
       rx="0.69501543"
       transform="matrix(0.87302804,0.48767002,-0.49721204,0.86762906,0,0)"
       fill="currentFill"
       data-astro-cid-ps6ru5vp=""
       id="rect1"
       x="36.003231"
       y="15.60358"
       style="fill:#c5f74f;fill-opacity:1;stroke-width:0.264583" />
    <rect
       width="1.3900282"
       height="5.8958158"
       rx="0.69501543"
       transform="matrix(0.87302804,0.48767002,-0.49721204,0.86762906,0,0)"
       fill="currentFill"
       data-astro-cid-ps6ru5vp=""
       id="rect2"
       x="38.702694"
       y="10.631448"
       style="fill:#c5f74f;fill-opacity:1;stroke-width:0.264583" />
    <rect
       width="1.3900282"
       height="5.8958158"
       rx="0.69501543"
       transform="matrix(0.87302804,0.48767002,-0.49721204,0.86762906,0,0)"
       fill="currentFill"
       data-astro-cid-ps6ru5vp=""
       id="rect3"
       x="45.149883"
       y="7.0078139"
       style="fill:#c5f74f;fill-opacity:1;stroke-width:0.264583" />
    <rect
       width="1.3900282"
       height="5.8958158"
       rx="0.69501543"
       transform="matrix(0.87302804,0.48767002,-0.49721204,0.86762906,0,0)"
       fill="currentFill"
       data-astro-cid-ps6ru5vp=""
       id="rect4"
       x="42.449001"
       y="11.980592"
       style="fill:#c5f74f;fill-opacity:1;stroke-width:0.264583" />
    <path
       d="m 42.16286,36.15221 c -0.45156,0 -0.85018,-0.10935 -1.19591,-0.32808 -0.33867,-0.21873 -0.60325,-0.53269 -0.79375,-0.94192 -0.1905,-0.40923 -0.28575,-0.89252 -0.28575,-1.44991 0,-0.5574 0.0952,-1.03717 0.28575,-1.43934 0.1905,-0.40216 0.45508,-0.7126 0.79375,-0.93133 0.34573,-0.21873 0.74435,-0.32808 1.19591,-0.32808 0.40923,0 0.76907,0.0988 1.0795,0.29633 0.3175,0.19756 0.53269,0.45508 0.64559,0.77258 h -0.11642 v -2.50825 c 0,-0.2681 0.067,-0.46918 0.20108,-0.60325 0.13407,-0.1411 0.33161,-0.21166 0.59267,-0.21166 0.254,0 0.45156,0.0706 0.59267,0.21166 0.1411,0.13407 0.21166,0.33515 0.21166,0.60325 v 6.02192 c 0,0.26106 -0.0706,0.46215 -0.21166,0.60325 -0.13407,0.1411 -0.32809,0.21167 -0.58209,0.21167 -0.254,0 -0.45156,-0.0706 -0.59266,-0.21167 -0.13407,-0.1411 -0.20109,-0.34219 -0.20109,-0.60325 v -0.71967 l 0.11642,0.41275 c -0.0988,0.34573 -0.31044,0.62442 -0.635,0.83609 -0.3175,0.2046 -0.6844,0.30691 -1.10067,0.30691 z m 0.47625,-1.19591 c 0.23284,0 0.43392,-0.0564 0.60325,-0.16934 0.16934,-0.11289 0.3034,-0.27868 0.40217,-0.49741 0.0988,-0.22577 0.14817,-0.51152 0.14817,-0.85725 0,-0.51507 -0.10584,-0.89252 -0.3175,-1.13242 -0.21167,-0.24694 -0.49036,-0.37042 -0.83609,-0.37042 -0.22577,0 -0.42685,0.0529 -0.60325,0.15875 -0.16933,0.10584 -0.30339,0.27165 -0.40216,0.49742 -0.0917,0.21873 -0.13759,0.50094 -0.13759,0.84667 0,0.51506 0.10584,0.89958 0.3175,1.15358 0.21167,0.24694 0.48684,0.37042 0.8255,0.37042 z m 4.78737,1.17475 c -0.26802,0 -0.47281,-0.0706 -0.61383,-0.21167 -0.14102,-0.1411 -0.21167,-0.34219 -0.21167,-0.60325 v -3.75708 c 0,-0.26107 0.0669,-0.45861 0.20109,-0.59267 0.14102,-0.1411 0.33522,-0.21167 0.58208,-0.21167 0.254,0 0.44794,0.0706 0.58208,0.21167 0.13415,0.13406 0.20109,0.3316 0.20109,0.59267 v 0.55033 h -0.10584 c 0.0847,-0.42333 0.27173,-0.75142 0.56092,-0.98425 0.28919,-0.23283 0.66331,-0.36335 1.12183,-0.39158 0.17648,-0.0141 0.31036,0.0318 0.40217,0.13758 0.0987,0.0988 0.15161,0.26458 0.15875,0.49742 0.014,0.21873 -0.0317,0.39158 -0.13758,0.51858 -0.0987,0.127 -0.26803,0.2046 -0.508,0.23283 l -0.24342,0.0212 c -0.40217,0.0353 -0.70194,0.15169 -0.89958,0.34925 -0.1905,0.19756 -0.28575,0.48331 -0.28575,0.85725 v 1.9685 c 0,0.26106 -0.0706,0.46215 -0.21167,0.60325 -0.13414,0.1411 -0.33152,0.21167 -0.59267,0.21167 z m 4.34023,-0.0106 c -0.26088,0 -0.46196,-0.0741 -0.60325,-0.22225 -0.13388,-0.15524 -0.20108,-0.37042 -0.20108,-0.64559 v -3.6195 c 0,-0.28223 0.0672,-0.49742 0.20108,-0.64558 0.14129,-0.15523 0.34237,-0.23284 0.60325,-0.23284 0.254,0 0.4482,0.0776 0.58208,0.23284 0.14129,0.14816 0.21167,0.36335 0.21167,0.64558 v 3.6195 c 0,0.27517 -0.0669,0.49035 -0.20108,0.64558 -0.13388,0.14817 -0.33153,0.22225 -0.59267,0.22225 z m 0,-6.23359 c -0.29633,0 -0.52546,-0.067 -0.68792,-0.20108 -0.15504,-0.1411 -0.23283,-0.33867 -0.23283,-0.59267 0,-0.26106 0.0778,-0.4586 0.23283,-0.59266 0.16246,-0.14111 0.39159,-0.21167 0.68792,-0.21167 0.29633,0 0.52229,0.0706 0.67733,0.21167 0.15531,0.13406 0.23284,0.3316 0.23284,0.59266 0,0.254 -0.0775,0.45157 -0.23284,0.59267 -0.15504,0.13406 -0.381,0.20108 -0.67733,0.20108 z m 2.47227,6.14892 c -0.15532,0 -0.28575,-0.0388 -0.39159,-0.11642 -0.10583,-0.0847 -0.17648,-0.1905 -0.21166,-0.3175 -0.0354,-0.127 -0.0354,-0.26458 0,-0.41275 0.0423,-0.14816 0.12329,-0.28575 0.24341,-0.41275 l 2.59292,-3.1115 v 0.37042 h -2.29658 c -0.1905,0 -0.33867,-0.0529 -0.4445,-0.15875 -0.10584,-0.10583 -0.15875,-0.25048 -0.15875,-0.43392 0,-0.19756 0.0529,-0.34573 0.15875,-0.4445 0.10583,-0.10583 0.254,-0.15875 0.4445,-0.15875 h 3.05858 c 0.1905,0 0.3421,0.0423 0.45508,0.127 0.11271,0.0847 0.1868,0.1905 0.22225,0.3175 0.0423,0.11994 0.0458,0.254 0.0106,0.40217 -0.0283,0.1411 -0.10239,0.27516 -0.22224,0.40216 l -2.65642,3.175 v -0.41275 h 2.45533 c 0.40217,0 0.60325,0.19757 0.60325,0.59267 0,0.1905 -0.0529,0.33867 -0.15875,0.4445 -0.10583,0.0988 -0.254,0.14817 -0.4445,0.14817 z m 5.08476,0 c -0.15505,0 -0.28575,-0.0388 -0.39159,-0.11642 -0.10583,-0.0847 -0.17621,-0.1905 -0.21166,-0.3175 -0.0352,-0.127 -0.0352,-0.26458 0,-0.41275 0.0423,-0.14816 0.12356,-0.28575 0.24341,-0.41275 l 2.59292,-3.1115 v 0.37042 h -2.29658 c -0.1905,0 -0.33867,-0.0529 -0.4445,-0.15875 -0.10584,-0.10583 -0.15875,-0.25048 -0.15875,-0.43392 0,-0.19756 0.0529,-0.34573 0.15875,-0.4445 0.10583,-0.10583 0.254,-0.15875 0.4445,-0.15875 h 3.05858 c 0.1905,0 0.34237,0.0423 0.45508,0.127 0.11298,0.0847 0.18706,0.1905 0.22225,0.3175 0.0423,0.11994 0.046,0.254 0.0106,0.40217 -0.028,0.1411 -0.10212,0.27516 -0.22224,0.40216 l -2.65642,3.175 v -0.41275 h 2.45533 c 0.40217,0 0.60325,0.19757 0.60325,0.59267 0,0.1905 -0.0529,0.33867 -0.15875,0.4445 -0.10583,0.0988 -0.254,0.14817 -0.4445,0.14817 z m 6.513771,0.11641 c -0.62785,0 -1.09722,-0.17285 -1.407581,-0.51858 -0.31035,-0.35277 -0.46567,-0.8749 -0.46567,-1.56633 v -4.77309 c 0,-0.2681 0.0669,-0.46918 0.20109,-0.60325 0.14102,-0.1411 0.3421,-0.21166 0.603251,-0.21166 0.254,0 0.44794,0.0706 0.58208,0.21166 0.14102,0.13407 0.21167,0.33515 0.21167,0.60325 v 4.70959 c 0,0.28927 0.0601,0.50448 0.17991,0.64558 0.127,0.13406 0.2929,0.20108 0.49742,0.20108 0.0564,0 0.10927,-0.004 0.15875,-0.0106 0.0495,-0.007 0.1024,-0.0106 0.15875,-0.0106 0.11298,-0.0141 0.1905,0.0212 0.23283,0.10584 0.0495,0.0776 0.0741,0.23635 0.0741,0.47625 0,0.21166 -0.0423,0.37393 -0.127,0.48683 -0.0847,0.10583 -0.2151,0.1764 -0.39158,0.21167 -0.0706,0.007 -0.15161,0.0141 -0.24342,0.0212 -0.0918,0.0141 -0.17991,0.0212 -0.26458,0.0212 z m 4.29816,0 c -0.61383,0 -1.143,-0.10935 -1.5875,-0.32808 -0.43736,-0.22577 -0.77602,-0.53975 -1.016,-0.94192 -0.23283,-0.40923 -0.34925,-0.889 -0.34925,-1.43933 0,-0.53623 0.11298,-1.00542 0.33867,-1.40758 0.22569,-0.40923 0.53975,-0.72673 0.94191,-0.9525 0.40931,-0.23284 0.87128,-0.34925 1.38642,-0.34925 0.37386,0 0.71252,0.0635 1.016,0.1905 0.30348,0.11993 0.56436,0.29633 0.78317,0.52916 0.21881,0.22577 0.38444,0.50448 0.49741,0.83609 0.11298,0.32456 0.16934,0.68791 0.16934,1.09008 0,0.13406 -0.0423,0.23635 -0.127,0.30692 -0.0847,0.0635 -0.20823,0.0952 -0.37042,0.0952 h -3.32317 v -0.8255 h 2.667 l -0.16933,0.14816 c 0,-0.28927 -0.0423,-0.52916 -0.127,-0.71966 -0.0847,-0.19757 -0.20823,-0.34573 -0.37042,-0.4445 -0.15531,-0.0988 -0.34925,-0.14817 -0.58208,-0.14817 -0.26114,0 -0.48339,0.06 -0.66675,0.17992 -0.18336,0.11993 -0.32464,0.29281 -0.42333,0.51858 -0.0987,0.22577 -0.14817,0.49742 -0.14817,0.81492 v 0.0847 c 0,0.53623 0.12356,0.93133 0.37042,1.18533 0.254,0.254 0.62785,0.381 1.12183,0.381 0.16933,0 0.36327,-0.0212 0.58208,-0.0635 0.21881,-0.0423 0.42334,-0.10935 0.61384,-0.20108 0.16219,-0.0776 0.30691,-0.10232 0.43391,-0.0741 0.127,0.0212 0.22569,0.0776 0.29634,0.16933 0.0706,0.0917 0.10927,0.19756 0.11641,0.3175 0.014,0.11994 -0.0106,0.2399 -0.0741,0.35983 -0.0635,0.1129 -0.16933,0.20815 -0.3175,0.28575 -0.23997,0.13407 -0.51144,0.23284 -0.81491,0.29634 -0.29634,0.0706 -0.58553,0.10583 -0.86784,0.10583 z"
       fill="currentColor"
       data-astro-cid-ps6ru5vp=""
       id="path4"
       style="fill:#ffffff;fill-opacity:1;stroke-width:0.264583" />
  </g>
</svg>
