<?xml version="1.0" encoding="UTF-8" standalone="no"?>
<!-- Created with Inkscape (http://www.inkscape.org/) -->

<svg
   width="138.56664mm"
   height="138.58702mm"
   viewBox="0 0 138.56664 138.58702"
   version="1.1"
   id="svg1"
   xml:space="preserve"
   xmlns="http://www.w3.org/2000/svg"
   xmlns:svg="http://www.w3.org/2000/svg"><defs
     id="defs1" /><g
     id="layer1"
     transform="translate(-12.208341,-88.133575)"><g
       id="g1"
       transform="matrix(0.13545127,0,0,0.13545127,12.140616,88.089601)"
       style="fill:#ffffff;fill-opacity:1"><path
         d="M 478.5,0.6 C 476.3,0.8 469.3,1.5 463,2 317.7,15.1 181.6,93.5 95.4,214 47.4,281 16.7,357 5.1,437.5 1,465.6 0.5,473.9 0.5,512 0.5,550.1 1,558.4 5.1,586.5 32.9,778.6 169.6,940 355,999.8 c 33.2,10.7 68.2,18 108,22.4 15.5,1.7 82.5,1.7 98,0 68.7,-7.6 126.9,-24.6 184.3,-53.9 8.8,-4.5 10.5,-5.7 9.3,-6.7 -0.8,-0.6 -38.3,-50.9 -83.3,-111.7 L 589.5,739.4 487,587.7 C 430.6,504.3 384.2,436.1 383.8,436.1 c -0.4,-0.1 -0.8,67.3 -1,149.6 -0.3,144.1 -0.4,149.9 -2.2,153.3 -2.6,4.9 -4.6,6.9 -8.8,9.1 -3.2,1.6 -6,1.9 -21.1,1.9 h -17.3 l -4.6,-2.9 c -3,-1.9 -5.2,-4.4 -6.7,-7.3 l -2.1,-4.5 0.2,-200.5 0.3,-200.6 3.1,-3.9 c 1.6,-2.1 5,-4.8 7.4,-6.1 4.1,-2 5.7,-2.2 23,-2.2 20.4,0 23.8,0.8 29.1,6.6 1.5,1.6 57,85.2 123.4,185.9 66.4,100.7 157.2,238.2 201.8,305.7 l 81,122.7 4.1,-2.7 c 36.3,-23.6 74.7,-57.2 105.1,-92.2 64.7,-74.3 106.4,-164.9 120.4,-261.5 4.1,-28.1 4.6,-36.4 4.6,-74.5 0,-38.1 -0.5,-46.4 -4.6,-74.5 C 991.1,245.4 854.4,84 669,24.2 636.3,13.6 601.5,6.3 562.5,1.9 c -9.6,-1 -75.7,-2.1 -84,-1.3 z M 687.9,310 c 4.8,2.4 8.7,7 10.1,11.8 0.8,2.6 1,58.2 0.8,183.5 L 698.5,685.1 666.8,636.5 635,587.9 V 457.2 c 0,-84.5 0.4,-132 1,-134.3 1.6,-5.6 5.1,-10 9.9,-12.6 4.1,-2.1 5.6,-2.3 21.3,-2.3 14.8,0 17.4,0.2 20.7,2 z"
         id="path1"
         style="fill:#ffffff;fill-opacity:1" /><path
         d="m 784.3,945.1 c -3.5,2.2 -4.6,3.7 -1.5,2 2.2,-1.3 5.8,-4 5.2,-4.1 -0.3,0 -2,1 -3.7,2.1 z m -6.9,4.5 c -1.8,1.4 -1.8,1.5 0.4,0.4 1.2,-0.6 2.2,-1.3 2.2,-1.5 0,-0.8 -0.5,-0.6 -2.6,1.1 z m -5,3 c -1.8,1.4 -1.8,1.5 0.4,0.4 1.2,-0.6 2.2,-1.3 2.2,-1.5 0,-0.8 -0.5,-0.6 -2.6,1.1 z m -5,3 c -1.8,1.4 -1.8,1.5 0.4,0.4 1.2,-0.6 2.2,-1.3 2.2,-1.5 0,-0.8 -0.5,-0.6 -2.6,1.1 z m -7.6,4 c -3.8,2 -3.6,2.8 0.2,0.9 1.7,-0.9 3,-1.8 3,-2 0,-0.7 -0.1,-0.6 -3.2,1.1 z"
         id="path2"
         style="fill:#ffffff;fill-opacity:1" /></g></g></svg>
