<?xml version="1.0" encoding="utf-8"?>
<!-- Generator: Adobe Illustrator 28.5.0, SVG Export Plug-In . SVG Version: 9.03 Build 54727)  -->
<svg version="1.0" id="katman_1" xmlns="http://www.w3.org/2000/svg" xmlns:xlink="http://www.w3.org/1999/xlink" x="0px" y="0px"
	 viewBox="0 0 841.9 595.3" style="enable-background:new 0 0 841.9 595.3;" xml:space="preserve">
<style type="text/css">
	.st0{fill:#FFFFFF;filter:url(#Adobe_OpacityMaskFilter);}
	.st1{mask:url(#a_00000173150351901681699780000012492188540393641371_);}
	.st2{fill:#1EBCA1;}
	.st3{fill:url(#SVGID_1_);}
	.st4{fill:#4FF7D1;}
	.st5{fill:#FFFFFF;filter:url(#Adobe_OpacityMaskFilter_00000014620006175265853350000009750369130583276433_);}
	.st6{mask:url(#c_00000050625403187478629490000002465155429782202042_);}
	.st7{fill:url(#SVGID_00000112634758946902886320000017728288752080716178_);}
</style>
<defs>
	<filter id="Adobe_OpacityMaskFilter" filterUnits="userSpaceOnUse" x="159.1" y="209.4" width="101.7" height="175.9">
		<feColorMatrix  type="matrix" values="1 0 0 0 0  0 1 0 0 0  0 0 1 0 0  0 0 0 1 0"/>
	</filter>
</defs>
<mask maskUnits="userSpaceOnUse" x="159.1" y="209.4" width="101.7" height="175.9" id="a_00000173150351901681699780000012492188540393641371_">
	<path class="st0" d="M268.3,207.5H162.9v177.7h105.4V207.5L268.3,207.5z"/>
</mask>
<g class="st1">
	<path class="st2" d="M162.9,248.3c78.3,0,64.3,32.6,64.3,32.6c-0.7,20.7-8.4,66.9-10.9,71.8c-2.6,4.9-16.1,18.9-26.7,24.3
		c0,0-3.8-4.1-6.2-7.7c-3,3.5-18.4,15.9-20.5,15.9C162.9,385.2,162.9,248.3,162.9,248.3z"/>
	<path class="st2" d="M228.2,275.2c0,3.3-1,5.6-1,5.6c-0.7,20.7-8.4,66.9-10.9,71.8c-2.6,4.9-16.1,18.9-26.7,24.3
		c0,0-3.8-4.1-6.2-7.7c-3,3.5-18.4,15.9-20.5,15.9v-110H228.2z"/>
	
		<linearGradient id="SVGID_1_" gradientUnits="userSpaceOnUse" x1="218.3862" y1="281.9878" x2="162.9645" y2="281.9878" gradientTransform="matrix(1 0 0 -1 -5.508423e-02 596.8622)">
		<stop  offset="0" style="stop-color:#1D2B33"/>
		<stop  offset="1" style="stop-color:#121B24"/>
	</linearGradient>
	<path class="st3" d="M218.3,280.5l-3.8,30.5l-20.9,1.9l1.8,25.8c0,0-12.7,10.6-32.6,10.6v-67L218.3,280.5L218.3,280.5L218.3,280.5z
		"/>
	<path class="st4" d="M260.8,267.7l-101.7,34.8v-33.4l91.7-23.3L260.8,267.7z"/>
	<path class="st4" d="M260.8,267.7l-28,9.4v-67.7C232.8,209.4,260.8,240,260.8,267.7z M198.2,263.2l10-19.8l15.2,18.4 M159.1,269.1
		h22.5l4.5,61.1c-8.8,2.3-17.9,3.4-27.1,3.4L159.1,269.1C159.2,269.1,159.1,269.1,159.1,269.1z"/>
</g>
<defs>
	
		<filter id="Adobe_OpacityMaskFilter_00000159461944301435817210000017256885559654918844_" filterUnits="userSpaceOnUse" x="65.2" y="209.4" width="101.7" height="175.9">
		<feColorMatrix  type="matrix" values="1 0 0 0 0  0 1 0 0 0  0 0 1 0 0  0 0 0 1 0"/>
	</filter>
</defs>
<mask maskUnits="userSpaceOnUse" x="65.2" y="209.4" width="101.7" height="175.9" id="c_00000050625403187478629490000002465155429782202042_">
	<path style="fill:#FFFFFF;filter:url(#Adobe_OpacityMaskFilter_00000159461944301435817210000017256885559654918844_);" d="
		M57.7,207.5h105.4v177.7H57.7V207.5L57.7,207.5z"/>
</mask>
<g class="st6">
	<path class="st2" d="M163.1,248.3c-78.3,0-64.3,32.6-64.3,32.6c0.7,20.7,8.4,66.9,10.9,71.8c2.6,4.9,16.1,18.9,26.7,24.3
		c0,0,3.8-4.1,6.2-7.7c3,3.5,18.3,15.9,20.5,15.9V248.3z"/>
	<path class="st2" d="M97.9,275.2c0,3.3,1,5.6,1,5.6c0.7,20.7,8.4,66.9,11,71.8c2.6,4.9,16.1,18.9,26.7,24.3c0,0,3.8-4.1,6.2-7.7
		c3,3.5,18.4,15.9,20.5,15.9v-110H97.9z"/>
	
		<linearGradient id="SVGID_00000045601344473954980090000006723200484125647034_" gradientUnits="userSpaceOnUse" x1="107.7536" y1="281.9878" x2="163.1753" y2="281.9878" gradientTransform="matrix(1 0 0 -1 -5.508423e-02 596.8622)">
		<stop  offset="0" style="stop-color:#1D2B33"/>
		<stop  offset="1" style="stop-color:#121B24"/>
	</linearGradient>
	<path style="fill:url(#SVGID_00000045601344473954980090000006723200484125647034_);" d="M107.7,280.5l3.8,30.5l20.9,1.9l-1.8,25.8
		c0,0,12.7,10.6,32.6,10.6v-67L107.7,280.5L107.7,280.5L107.7,280.5z"/>
	<path class="st4" d="M65.2,267.7l101.6,34.8v-33.4l-91.7-23.3C75.2,245.8,65.2,267.7,65.2,267.7z"/>
	<path class="st4" d="M65.2,267.7l28,9.4v-67.7C93.2,209.4,65.2,240,65.2,267.7L65.2,267.7z M127.8,263.2l-10-19.8l-15.2,18.4
		 M166.9,269.1h-22.5l-4.5,61.1c8.9,2.3,18,3.4,27.1,3.4L166.9,269.1L166.9,269.1z"/>
</g>
<path class="st4" d="M350.8,278.4v88h-27.1v-88l-30.1-3.8v-21.9h87v21.9L350.8,278.4L350.8,278.4z M389.3,321.1v-68.3h27.1v68.3
	c0,12.8,6,21.7,19.3,21.7c13.3,0,19-9,19-21.8v-68.1h27.1v68.1c0,27.4-15.6,47.6-46.4,47.6S389.2,349.5,389.3,321.1L389.3,321.1
	L389.3,321.1z M554.6,314.6l25.6,51.9h-29l-22-46.6h-7.3v46.6h-26.9V252.9h38.6c23.5,0,35.3,12.3,35.3,33.8
	C568.9,299.3,563.7,309,554.6,314.6z M521.8,276.5v21h9.4c6.2,0,9.7-4.3,9.7-10.7c0-6.4-3.7-10.3-9.7-10.3
	C531.2,276.5,521.8,276.5,521.8,276.5z M616.9,293.7l14.1,5.6c14.6,6.1,23.2,15.9,23.2,32.8c0,23-16.1,36.4-38.6,36.4
	c-32.1,0-37.9-21.2-37-37.8h25.6c-0.3,7.2,2.4,14.3,11.3,14.3c6.2,0,10.7-3.5,10.7-10c0-6.5-4.5-9.5-11.8-12.3
	c-5.7-2.3-11.3-4.4-17.5-7.5c-11.3-5.9-17.4-17.1-17.4-30.8c0-19.9,14.3-33.6,36.2-33.6c26.4,0,36,15.3,34.9,35.4h-25
	c0.2-7.1-3.4-12-9.7-12c-6.3,0-9.2,3.8-9.2,8.5C606.7,287.5,609.2,290.8,616.9,293.7L616.9,293.7L616.9,293.7z M718.2,250.7
	c36.6,0,59.5,25.4,59.5,58.6s-22.7,59.2-58.7,59.2c-36,0-59-25.4-59-58.8C660,276.5,683.6,250.7,718.2,250.7
	C718.1,250.7,718.2,250.7,718.2,250.7z M718.8,343c19.8,0,30.5-14.8,30.5-33.3c0-18.5-11.3-33.3-30.6-33.3s-30.3,14.8-30.3,33.3
	C688.3,328.2,700.2,343,718.8,343L718.8,343L718.8,343z"/>
</svg>
