<?xml version="1.0" encoding="UTF-8" standalone="no"?>
<!-- Created with Inkscape (http://www.inkscape.org/) -->

<svg
   width="52.916695mm"
   height="44.976521mm"
   viewBox="0 0 52.916695 44.976521"
   version="1.1"
   id="svg1"
   xml:space="preserve"
   xmlns="http://www.w3.org/2000/svg"
   xmlns:svg="http://www.w3.org/2000/svg"><defs
     id="defs1" /><g
     id="layer1"
     transform="translate(-53.248665,-21.994063)"><path
       d="m 106.16006,34.855458 c -1.2356,-7.392459 -7.715254,-12.861396 -7.715254,-12.861396 v 8.143875 l -3.84704,0.992187 -2.41035,-2.902479 -1.27265,2.502959 c -2.62466,-0.714375 -6.23887,-1.17475 -11.21039,-1.17475 -4.971551,0 -8.585759,0.46302 -11.210426,1.17475 l -1.272646,-2.502959 -2.410354,2.902479 -3.847042,-0.992187 v -8.143875 c 0,0 -6.479638,5.468937 -7.715241,12.861396 l 8.5037,2.942166 c 0.277812,5.140855 2.590271,19.01825 3.251729,20.277667 0.703792,1.341438 4.439708,5.17525 7.363354,6.648979 0,0 1.058334,-1.119187 1.703917,-2.106083 0.820208,0.965729 5.056189,4.352396 5.635649,4.352396 0.57944,0 4.81542,-3.384021 5.63563,-4.352396 0.64558,0.986896 1.70391,2.106083 1.70391,2.106083 2.92365,-1.473729 6.65957,-5.307541 7.36336,-6.648979 0.66146,-1.259417 2.97391,-15.136812 3.25173,-20.277667 l 8.503714,-2.942166 z m -12.221104,11.837458 -5.75469,0.513292 0.50536,7.056437 c 0,0 -3.50044,2.897188 -8.98525,2.897188 -5.484842,0 -8.98528,-2.897188 -8.98528,-2.897188 l 0.505354,-7.056437 -5.754687,-0.513292 -0.98425,-7.948083 9.538229,3.302 -0.740833,9.892771 c 1.772707,0.449791 3.638017,0.896937 6.424107,0.896937 2.78606,0 4.64873,-0.447146 6.42144,-0.896937 l -0.74083,-9.892771 9.53823,-3.302 -0.98425,7.948083 z"
       fill="#4ff8d2"
       id="path1-2"
       style="stroke-width:0.264583" /></g></svg>
